HIERARCHY
ROOT Hips
{
	OFFSET 0.000000 0.000000 0.000000 
	CHANNELS 6 Xposition Yposition Zposition Zrotation Yrotation Xrotation
	JOINT LeftUpLeg
	{
		OFFSET 1.363060 -1.794630 0.839290 
		CHANNELS 3 Zrotation Yrotation Xrotation
		JOINT LeftLeg
		{
			OFFSET 2.448110 -6.726130 0.000000 
			CHANNELS 3 Zrotation Yrotation Xrotation
			JOINT LeftFoot
			{
				OFFSET 2.562200 -7.039590 0.000000 
				CHANNELS 3 Zrotation Yrotation Xrotation
				JOINT LeftToeBase
				{
					OFFSET 0.157640 -0.433110 2.322550 
					CHANNELS 3 Zrotation Yrotation Xrotation
					End Site
					{
						OFFSET 0.000000 0.000000 0.000000 
					}
				}
			}
		}
	}
	JOINT RightUpLeg
	{
		OFFSET -1.305520 -1.794630 0.839290 
		CHANNELS 3 Zrotation Yrotation Xrotation
		JOINT RightLeg
		{
			OFFSET -2.542530 -6.985550 0.000000 
			CHANNELS 3 Zrotation Yrotation Xrotation
			JOINT RightFoot
			{
				OFFSET -2.568260 -7.056230 0.000000 
				CHANNELS 3 Zrotation Yrotation Xrotation
				JOINT RightToeBase
				{
					OFFSET -0.164730 -0.452590 2.363150 
					CHANNELS 3 Zrotation Yrotation Xrotation
					End Site
					{
						OFFSET 0.000000 0.000000 0.000000 
					}
				}
			}
		}
	}
	JOINT Spine
	{
		OFFSET 0.028270 2.035590 -0.193380 
		CHANNELS 3 Zrotation Yrotation Xrotation
		JOINT Spine1
		{
			OFFSET 0.056720 2.048850 -0.042750 
			CHANNELS 3 Zrotation Yrotation Xrotation
			JOINT Neck1
			{
				OFFSET -0.054170 1.746240 0.172020 
				CHANNELS 3 Zrotation Yrotation Xrotation
				JOINT Head
				{
					OFFSET 0.104070 1.761360 -0.123970 
					CHANNELS 3 Zrotation Yrotation Xrotation
					End Site
					{
						OFFSET 0.000000 0.000000 0.000000 
					}
				}
			}
			JOINT LeftArm
			{
				OFFSET 3.362410 1.200890 -0.311210 
				CHANNELS 3 Zrotation Yrotation Xrotation
				JOINT LeftForeArm
				{
					OFFSET 4.983000 -0.000000 -0.000000 
					CHANNELS 3 Zrotation Yrotation Xrotation
					JOINT LeftHand
					{
						OFFSET 3.483560 -0.000000 -0.000000 
						CHANNELS 3 Zrotation Yrotation Xrotation
						JOINT LeftHandIndex1
						{
							OFFSET 0.715260 -0.000000 -0.000000 
							CHANNELS 3 Zrotation Yrotation Xrotation
							End Site
							{
								OFFSET 0.000000 0.000000 0.000000 
							}
						}
					}
				}
			}
			JOINT RightArm
			{
				OFFSET -3.136600 1.374050 -0.404650 
				CHANNELS 3 Zrotation Yrotation Xrotation
				JOINT RightForeArm
				{
					OFFSET -5.241900 -0.000000 -0.000000 
					CHANNELS 3 Zrotation Yrotation Xrotation
					JOINT RightHand
					{
						OFFSET -3.444170 -0.000000 -0.000000 
						CHANNELS 3 Zrotation Yrotation Xrotation
						JOINT RightHandIndex1
						{
							OFFSET -0.622530 -0.000000 -0.000000 
							CHANNELS 3 Zrotation Yrotation Xrotation
							End Site
							{
								OFFSET 0.000000 0.000000 0.000000 
							}
						}
					}
				}
			}
		}
	}
}
MOTION
Frames: 9
Frame Time: 0.041667
-2.944639 17.183240 -2.052598 14.631131 -34.757335 4.415267 -5.943492 -6.798030 -18.723086 4.760528 14.538293 45.094778 5.459532 -8.506789 9.162904 3.204500 -11.019000 -32.344000 10.604729 -2.566950 -55.885227 -19.325685 -20.910024 85.457556 0.916536 -4.804074 13.036744 -0.244300 3.180700 -8.782200 -1.044379 -3.591202 -3.967584 0.063253 -1.839235 -6.506807 6.430795 -3.876737 1.056453 2.189300 -1.836400 4.998600 -86.457259 4.734257 43.327572 127.964442 -51.478743 -95.581658 -0.138870 -0.218912 -14.320320 -7.125000 0.000000 0.000000 89.728402 -28.878419 35.004805 -69.660991 56.454316 -48.910705 2.229060 0.750916 -18.515635 7.125000 0.000000 0.000000 
-3.353590 17.248031 -1.502244 14.493560 -35.159463 4.397534 -5.680188 -6.677574 -17.232102 4.271613 14.286216 44.458239 5.700288 -9.752387 13.898418 3.047600 -10.771700 -31.513600 10.941493 -2.140741 -57.245834 -17.486770 -20.882772 80.086570 0.865815 -4.683203 13.108098 -0.473300 4.412100 -12.238900 -0.937799 -3.961535 -3.973056 0.326235 -2.073492 -6.300701 6.319924 -3.262988 1.255053 2.109000 -1.541200 5.083100 -85.844312 3.938097 43.847728 131.055417 -49.888381 -97.936666 -0.125896 -0.216160 -15.294128 -7.125000 0.000000 0.000000 89.237240 -30.527395 35.209895 -70.564873 56.738245 -49.783471 2.221057 0.743148 -17.957293 7.125000 0.000000 0.000000 
-3.774897 17.318411 -0.947378 14.271180 -35.583596 4.368197 -5.270897 -6.661786 -15.742365 3.657334 13.969130 43.642110 5.774388 -10.666857 19.999740 2.559500 -9.945200 -28.799500 11.391857 -1.910207 -57.985756 -15.426044 -20.630802 74.057598 0.972246 -5.206767 13.644370 -0.654800 5.176000 -14.411200 -0.839236 -4.264964 -3.964374 0.520845 -2.281759 -6.060815 6.243384 -2.719051 1.467912 2.054000 -1.276500 5.171200 -85.241508 3.373369 44.325821 133.815124 -48.297901 -100.008523 -0.115520 -0.213915 -15.973847 -7.125000 0.000000 0.000000 88.857929 -32.084558 35.253597 -71.404968 57.007447 -50.600620 2.211636 0.745111 -17.538247 7.125000 0.000000 0.000000 
-4.205768 17.390831 -0.387354 14.025230 -36.017350 4.255958 -4.795129 -6.827313 -14.191608 3.027962 13.627477 42.706938 5.714120 -10.984028 26.707123 1.875300 -8.601300 -24.555900 11.884171 -1.928487 -58.113705 -13.226597 -20.112354 67.552777 1.228399 -6.355769 14.761288 -0.740000 5.495400 -15.327100 -0.753929 -4.506311 -3.940732 0.648316 -2.465179 -5.802808 6.187193 -2.242636 1.690936 2.018600 -1.042800 5.260300 -84.677630 3.031727 44.795101 136.230272 -46.763689 -101.787900 -0.107428 -0.209935 -16.328850 -7.125000 0.000000 0.000000 88.614655 -33.544976 35.109471 -72.184389 57.262519 -51.364962 2.200739 0.760934 -17.355389 7.125000 0.000000 0.000000 
-4.643300 17.460136 0.178473 13.827951 -36.425971 4.018280 -4.349436 -7.261905 -12.546350 2.493003 13.313936 41.758903 5.645559 -10.823289 33.287788 1.069000 -6.572800 -18.455700 12.333648 -2.232679 -57.712752 -10.995402 -19.314585 60.782030 1.597442 -8.058661 16.519368 -0.731600 5.464900 -15.239400 -0.687376 -4.703086 -3.902118 0.698569 -2.631751 -5.518942 6.140232 -1.832932 1.918839 1.997900 -0.841100 5.345300 -84.162854 2.892535 45.274730 138.309667 -45.333545 -103.285904 -0.100380 -0.204086 -16.395052 -7.125000 0.000000 0.000000 88.518297 -34.897840 34.766985 -72.908860 57.506467 -52.080435 2.188361 0.786707 -17.403972 7.125000 0.000000 0.000000 
-5.085238 17.521167 0.749242 13.743901 -36.785448 3.609093 -4.052036 -8.041726 -10.789505 2.152257 13.098909 41.002405 5.629100 -10.388144 38.743270 0.417200 -4.145800 -11.487200 12.662457 -2.808135 -56.887352 -8.860451 -18.266846 54.002671 2.024493 -10.218433 18.861819 -0.666000 5.219100 -14.534500 -0.640966 -4.875253 -3.850193 0.683642 -2.789029 -5.209106 6.087976 -1.480633 2.150236 1.979900 -0.668100 5.427900 -83.709017 2.921503 45.763960 140.065951 -44.047526 -104.519706 -0.093843 -0.196638 -16.279229 -7.125000 0.000000 0.000000 88.567538 -36.109372 34.241910 -73.558528 57.733453 -52.727557 2.175005 0.817715 -17.609028 7.125000 0.000000 0.000000 
-5.529109 17.569519 1.324309 13.815839 -37.081291 3.003288 -4.008528 -9.168929 -8.928744 2.014134 13.013873 40.582025 5.632480 -9.845772 42.439127 0.084200 -1.871400 -5.150500 12.807904 -3.617886 -55.747992 -6.921601 -17.029174 47.439108 2.424038 -12.646570 21.640883 -0.584100 4.893500 -13.605100 -0.614595 -5.038781 -3.789493 0.613469 -2.940833 -4.884868 6.020550 -1.175002 2.383708 1.957700 -0.520100 5.507500 -83.332773 3.100832 46.257366 141.516753 -42.936509 -105.510156 -0.087250 -0.188414 -16.113436 -7.125000 0.000000 0.000000 88.732578 -37.166764 33.581439 -74.145640 57.944268 -53.315078 2.162209 0.848462 -17.862317 7.125000 0.000000 0.000000 
-5.969005 17.581768 1.904640 14.030242 -37.316427 2.205355 -4.298957 -10.557718 -7.017115 2.099335 13.100156 40.703254 5.550217 -9.157106 44.097491 0.002200 -0.304000 -0.835300 12.760591 -4.561910 -54.493787 -5.275812 -15.711516 41.389669 2.722024 -15.148805 24.662637 -0.534700 4.685400 -13.013400 -0.605033 -5.195500 -3.724168 0.499372 -3.083391 -4.560311 5.930422 -0.907980 2.616594 1.924900 -0.393900 5.582400 -83.049412 3.410320 46.748933 142.666620 -42.034038 -106.268814 -0.080780 -0.179967 -15.989334 -7.125000 0.000000 0.000000 88.981927 -38.053716 32.831553 -74.671939 58.136647 -53.842607 2.151126 0.872747 -18.036359 7.125000 0.000000 0.000000 
-6.410728 17.589074 2.484865 14.380389 -37.502071 1.255917 -4.924194 -12.026752 -5.142868 2.400698 13.351861 41.374390 5.307099 -8.148754 43.947152 0.003900 0.401400 1.103100 12.518266 -5.560222 -53.111733 -3.923315 -14.392920 35.967713 2.858875 -17.495124 27.718515 -0.538900 4.703700 -13.065400 -0.607123 -5.345412 -3.662076 0.371587 -3.212817 -4.261292 5.815670 -0.673328 2.845991 1.877600 -0.287400 5.653800 -82.887408 3.833684 47.202753 143.516508 -41.367179 -106.806019 -0.073281 -0.171682 -15.934572 -7.125000 0.000000 0.000000 89.266038 -38.757278 32.058624 -75.134795 58.305787 -54.306986 2.143130 0.885923 -18.043401 7.125000 0.000000 0.000000 
